<?xml version="1.0" encoding="iso-8859-1"?>
<!-- Generator: Adobe Illustrator 19.0.0, SVG Export Plug-In . SVG Version: 6.00 Build 0)  -->
<svg version="1.1" id="Capa_1" xmlns="http://www.w3.org/2000/svg" xmlns:xlink="http://www.w3.org/1999/xlink" x="0px" y="0px"
	 viewBox="0 0 238.613 238.613" style="enable-background:new 0 0 238.613 238.613;" xml:space="preserve">
<g>
	<g>
		<path style="fill:#DB9F15;" d="M125.642,215.167h-8.688v-22.743c0-2.398,1.945-4.344,4.344-4.344h0.001
			c2.398,0,4.344,1.945,4.344,4.345V215.167z"/>
		<path style="fill:#DB9F15;" d="M138.786,222.195h-30.202c-1.94,0-3.514-1.573-3.514-3.514l0,0c0-1.941,1.573-3.514,3.514-3.514
			h30.202c1.94,0,3.513,1.573,3.513,3.514l0,0C142.299,220.621,140.727,222.195,138.786,222.195z"/>
	</g>
	<g>
		<path style="fill:#00AF41;" d="M238.613,102.911L238.613,102.911c0,31.416-25.468,56.883-56.883,56.883h-33.837v-56.883H238.613z"
			/>
		<path style="fill:#007934;" d="M220.266,102.911L220.266,102.911c0,25.063-20.317,45.379-45.379,45.379h-26.993v-45.379H220.266z"
			/>
		<path style="fill:#009BDE;" d="M203.436,102.911L203.436,102.911c0,19.234-15.592,34.826-34.826,34.826h-20.716v-34.826H203.436z"
			/>
	</g>
	<path style="fill:#A93439;" d="M80.287,82.263v120.182h12.892c33.126,0,59.98-26.854,59.98-59.979V82.263H80.287z"/>
	<path style="fill:#E63C2F;" d="M116.729,16.419H17.982l0,0c0,29.809,23.864,54.027,53.528,54.631
		c4.029,21.311,22.735,37.432,45.218,37.432c25.422,0,46.031-20.609,46.031-46.032S142.15,16.419,116.729,16.419z"/>
	<g>
		<path style="fill:#00AF41;" d="M0,108.664L0,108.664c0,31.415,25.468,56.883,56.883,56.883H90.72v-56.883H0z"/>
		<path style="fill:#007934;" d="M18.348,108.664L18.348,108.664c0,25.061,20.317,45.378,45.379,45.378H90.72v-45.378H18.348z"/>
		<path style="fill:#009BDE;" d="M35.178,108.664L35.178,108.664c0,19.233,15.592,34.826,34.826,34.826H90.72v-34.826H35.178z"/>
	</g>
	<g>
		<circle style="fill:#FFFFFF;" cx="123.685" cy="56.505" r="11.226"/>
		<circle style="fill:#814C3A;" cx="123.685" cy="56.505" r="5.613"/>
	</g>
	<path style="fill:#FFD13F;" d="M162.267,54.548h-11.025v26.365h37.39v0C188.631,66.352,176.827,54.548,162.267,54.548z"/>
	<path style="fill:#E63C2F;" d="M62.874,167.618c-9.617,0-17.413,7.796-17.413,17.413c0,9.617,7.796,17.413,17.413,17.413h17.413
		v-17.413C80.287,175.414,72.491,167.618,62.874,167.618z"/>
	<g>
		<path style="fill:#FFB819;" d="M98.188,215.167H89.5v-22.743c0-2.398,1.945-4.344,4.345-4.344l0,0
			c2.398,0,4.344,1.945,4.344,4.345V215.167z"/>
		<path style="fill:#FFB819;" d="M111.333,222.195H81.131c-1.94,0-3.513-1.573-3.513-3.514l0,0c0-1.941,1.572-3.514,3.513-3.514
			h30.202c1.94,0,3.514,1.573,3.514,3.514l0,0C114.847,220.621,113.273,222.195,111.333,222.195z"/>
	</g>
</g>
<g>
</g>
<g>
</g>
<g>
</g>
<g>
</g>
<g>
</g>
<g>
</g>
<g>
</g>
<g>
</g>
<g>
</g>
<g>
</g>
<g>
</g>
<g>
</g>
<g>
</g>
<g>
</g>
<g>
</g>
</svg>
