<svg xmlns="http://www.w3.org/2000/svg" height="511pt" version="1.1" viewBox="0 -50 511.99971 511" width="511pt">
<g id="surface1">
<path d="M 472.1875 129.902344 C 473.699219 58.449219 414.25 0.5 342.785156 0.5 C 297.613281 0.5 257.851562 23.648438 234.707031 58.730469 C 219.765625 81.378906 202.558594 102.398438 183.75 121.960938 C 159.621094 147.058594 144.785156 181.160156 144.785156 218.730469 C 144.785156 220.839844 144.839844 222.9375 144.933594 225.027344 L 1.476562 287.191406 C -0.867188 288.207031 -0.285156 291.679688 2.261719 291.875 L 76.359375 297.542969 C 125.117188 301.269531 172.5625 315.535156 214.964844 339.898438 C 235.425781 351.652344 259.144531 358.375 284.433594 358.375 C 357.417969 358.375 469.863281 239.332031 472.1875 129.902344 Z M 472.1875 129.902344 " style=" stroke:none;fill-rule:nonzero;fill:rgb(37.647059%,74.117647%,80%);fill-opacity:1;" />
<path d="M 26.707031 293.746094 C 27.84375 292.988281 176.738281 225.027344 176.738281 225.027344 C 176.644531 222.9375 176.589844 220.84375 176.589844 218.730469 C 176.589844 181.160156 191.425781 147.058594 215.558594 121.957031 C 234.625 102.125 251.820312 80.542969 267.1875 57.71875 C 287.628906 27.351562 320.613281 6.136719 358.71875 1.476562 C 353.488281 0.835938 348.171875 0.5 342.785156 0.5 C 297.613281 0.5 257.851562 23.652344 234.707031 58.730469 C 219.765625 81.378906 202.558594 102.398438 183.75 121.960938 C 159.621094 147.058594 144.785156 181.160156 144.785156 218.730469 C 144.785156 220.839844 144.839844 222.9375 144.933594 225.027344 L 1.476562 287.191406 C -0.867188 288.207031 -0.285156 291.679688 2.261719 291.875 Z M 26.707031 293.746094 " style=" stroke:none;fill-rule:nonzero;fill:rgb(33.333333%,65.882353%,70.980392%);fill-opacity:1;" />
<path d="M 471.261719 143.40625 C 466.511719 185.796875 447.339844 227.574219 422.78125 262.3125 C 402.28125 291.304688 376.007812 318.105469 345.816406 337.0625 C 345.796875 337.070312 345.777344 337.09375 345.742188 337.105469 C 344.863281 337.664062 343.984375 338.207031 343.105469 338.746094 C 343.050781 338.769531 343.007812 338.800781 342.957031 338.832031 C 336.542969 306.964844 343.210938 266.480469 363.894531 228.136719 C 366.40625 223.480469 369.054688 218.976562 371.820312 214.640625 C 383.96875 195.605469 399.371094 178.328125 417.714844 165.074219 C 425.808594 159.222656 434.503906 154.15625 443.734375 150.320312 C 448.003906 148.542969 452.382812 147.035156 456.851562 145.859375 C 459.933594 145.046875 466.707031 142.457031 469.808594 143.46875 C 470.101562 143.566406 470.925781 143.40625 471.261719 143.40625 Z M 471.261719 143.40625 " style=" stroke:none;fill-rule:nonzero;fill:rgb(90.196078%,22.352941%,31.372549%);fill-opacity:1;" />
<path d="M 509.699219 89.085938 C 512.609375 89.792969 512.816406 93.847656 509.996094 94.851562 L 470.835938 108.789062 L 441.636719 119.175781 C 439.738281 119.851562 437.722656 118.507812 437.617188 116.492188 L 435.488281 74.953125 C 435.382812 72.9375 437.25 71.390625 439.210938 71.871094 L 461.730469 77.367188 Z M 509.699219 89.085938 " style=" stroke:none;fill-rule:nonzero;fill:rgb(100%,80.392157%,41.960784%);fill-opacity:1;" />
<path d="M 394.316406 105.347656 C 389.925781 105.347656 386.367188 101.789062 386.367188 97.398438 L 386.367188 55.046875 C 386.367188 50.65625 389.925781 47.09375 394.316406 47.09375 C 398.710938 47.09375 402.269531 50.65625 402.269531 55.046875 L 402.269531 97.398438 C 402.269531 101.789062 398.710938 105.347656 394.316406 105.347656 Z M 394.316406 105.347656 " style=" stroke:none;fill-rule:nonzero;fill:rgb(34.509804%,35.294118%,40%);fill-opacity:1;" />
<path d="M 296.035156 241.503906 C 259.648438 251.714844 176.191406 238.511719 104.121094 220.851562 C 81.859375 215.390625 63.367188 210.324219 52.320312 207.203125 C 48.210938 206.042969 47.597656 200.480469 51.351562 198.445312 C 92.625 176.058594 248.210938 94.125 296.363281 104.386719 C 345.265625 114.804688 346.441406 149.84375 343.394531 175.496094 C 340.5 199.839844 332.628906 231.234375 296.035156 241.503906 Z M 296.035156 241.503906 " style=" stroke:none;fill-rule:nonzero;fill:rgb(33.333333%,65.882353%,70.980392%);fill-opacity:1;" />
<path d="M 343.390625 175.5 C 341.949219 187.628906 339.277344 201.496094 332.429688 213.632812 C 331.972656 214.4375 331.507812 215.242188 331.007812 216.039062 C 324.03125 227.234375 313.1875 236.691406 296.035156 241.503906 C 265.101562 250.183594 200.148438 241.949219 137.101562 228.421875 C 126.871094 226.238281 116.683594 223.90625 106.707031 221.476562 C 105.839844 221.277344 104.980469 221.0625 104.121094 220.851562 C 117.277344 213.675781 131.535156 206.074219 146.230469 198.566406 C 202.679688 169.753906 265.628906 142.5625 297.984375 148.042969 C 315.351562 150.980469 335.894531 165.96875 343.390625 175.5 Z M 343.390625 175.5 " style=" stroke:none;fill-rule:nonzero;fill:rgb(100%,80.392157%,41.960784%);fill-opacity:1;" />
<path d="M 363.996094 412.113281 L 271.839844 412.113281 C 267.535156 412.113281 264.011719 408.6875 263.894531 404.382812 C 263.773438 400.078125 267.101562 396.460938 271.402344 396.222656 L 306.621094 394.273438 L 275.242188 339.433594 C 273.0625 335.621094 274.382812 330.765625 278.195312 328.582031 C 282.007812 326.402344 286.863281 327.722656 289.042969 331.535156 L 326.050781 396.210938 L 364 396.210938 C 368.390625 396.210938 371.949219 399.773438 371.949219 404.164062 C 371.949219 408.554688 368.390625 412.113281 363.996094 412.113281 Z M 363.996094 412.113281 " style=" stroke:none;fill-rule:nonzero;fill:rgb(34.509804%,35.294118%,40%);fill-opacity:1;" />
</g>
</svg>