<svg height="511pt" viewBox="-27 0 511 511.99955" width="511pt" xmlns="http://www.w3.org/2000/svg"><path d="m313.742188 385.546875 142.074218 71.917969c2.277344 1.152344 2.238282 4.429687-.070312 5.5625l-59.097656 29.082031c-20.285157 9.976563-44.65625 4.414063-58.414063-13.339844l-27.222656-35.125zm0 0" fill="#6d4c41"/><path d="m227.613281 2.289062c.171875-1.527343-1.320312-2.691406-2.757812-2.15625-14.945313 5.535157-79.535157 29.640626-112.46875 44.773438-27.847657 12.800781-31.402344 27.785156-32.4375 43.828125-1.035157 16.042969-.164063 90.597656 36.667969 129.191406 0 0-32.402344 92.980469 35.863281 159.722657 68.265625 66.738281 69 84.863281 69 84.863281h44.726562s19.507813-99.445313 18.472657-154.964844c-1.035157-55.519531-58.757813-159.109375-61.863282-199.003906-2.703125-34.707031 3.214844-91.949219 4.796875-106.253907zm0 0" fill="#eceff1"/><path d="m284.675781 307.542969c-1.035156-55.519531-58.753906-159.105469-61.859375-199-2.703125-34.707031 3.214844-91.949219 4.796875-106.253907.171875-1.527343-1.324219-2.691406-2.761719-2.15625-5.066406 1.875-15.824218 5.882813-29.113281 10.945313-2.199219 21.722656-6.179687 67.8125-3.871093 97.464844 3.105468 39.894531 60.828124 143.480469 61.863281 199 1.035156 55.523437-18.472657 154.964843-18.472657 154.964843h30.949219s19.507813-99.441406 18.46875-154.964843zm0 0" fill="#cfd8dc"/><path d="m221.480469 462.507812v9.910157c0 5.183593-4.21875 9.386719-9.417969 9.386719h-33.328125c-5.976563 0-11.414063 3.449218-13.9375 8.851562-2.214844 4.742188-4.601563 10.480469-6.347656 14.8125-1.261719 3.125 1.042969 6.53125 4.421875 6.53125h120.296875c4.605469 0 7.863281-4.496094 6.414062-8.859375l-4.878906-14.675781c-1.304687-3.925782-4.984375-6.574219-9.132813-6.574219-5.3125 0-9.617187-4.292969-9.617187-9.589844v-9.792969zm0 0" fill="#fdd835"/><path d="m289.578125 503.140625-4.878906-14.675781c-1.300781-3.921875-4.984375-6.574219-9.128907-6.574219-5.3125 0-9.617187-4.292969-9.617187-9.589844v-9.792969h-30.949219v9.792969c0 5.296875 4.304688 9.589844 9.617188 9.589844 4.148437 0 7.828125 2.648437 9.132812 6.574219l4.878906 14.675781c1.449219 4.363281-1.808593 8.859375-6.414062 8.859375h30.945312c4.609376 0 7.863282-4.496094 6.414063-8.859375zm0 0" fill="#fbc02d"/><path d="m79.714844 105.808594s-63.261719-11.699219-75.339844 10.324218c-12.078125 22.019532 7.9375 53.675782 7.9375 53.675782s11.183594-18.765625 29.058594-17.46875l71.015625-16.082032s0-11.179687-6.210938-17.71875c-6.210937-6.535156-26.460937-12.730468-26.460937-12.730468zm0 0" fill="#fdd835"/><path d="m48.769531 106.691406s20.246094 7.957032 26.457031 16.355469c4.613282 6.234375 5.800782 15.75 6.105469 20.242187l31.054688-7.035156s0-11.175781-6.210938-17.714844c-6.214843-6.535156-26.460937-12.730468-26.460937-12.730468s-27.6875-5.117188-49.925782-2.207032c10.917969 1.175782 18.980469 3.089844 18.980469 3.089844zm0 0" fill="#fbc02d"/><path d="m41.371094 152.339844s4.414062 17.46875 23.738281 22.628906c19.328125 5.164062 36.582031-8.175781 41.066406-12.347656 4.484375-4.167969 6.210938-26.363282 6.210938-26.363282zm0 0" fill="#fbc02d"/><path d="m80.84375 143.402344c-.835938 8.542968-2.601562 22.132812-5.617188 25.613281-1.316406 1.519531-3.734374 4.015625-6.976562 6.628906 18.027344 3.050781 33.683594-9.082031 37.925781-13.023437 4.484375-4.167969 6.210938-26.363282 6.210938-26.363282zm0 0" fill="#f9a825"/><path d="m235.082031 152.578125 144.015625 292.160156s-219.136718 16.089844-279.191406-121.96875c-71.460938-164.273437 135.175781-170.191406 135.175781-170.191406zm0 0" fill="#795548"/><path d="m235.082031 152.578125s-12.074219.347656-29.375 3.191406l142.445313 288.96875s-2.101563.152344-5.929688.300781c22.453125.757813 36.875-.300781 36.875-.300781zm0 0" fill="#6d4c41"/><g fill="#5d4037"><path d="m329.621094 405.910156c-58.253906-3.746094-160.976563-21.519531-194.460938-98.492187-1.652344-3.796875-6.070312-5.535157-9.871094-3.886719-3.796874 1.652344-5.535156 6.074219-3.886718 9.871094 36.664062 84.277344 145.589844 103.511718 207.257812 107.476562.164063.011719.324219.015625.488282.015625 3.921874 0 7.222656-3.046875 7.476562-7.019531.265625-4.132812-2.871094-7.699219-7.003906-7.964844zm0 0"/><path d="m201.773438 356.308594c19.679687 11.402344 44.058593 20.199218 72.449218 26.144531.519532.109375 1.035156.160156 1.546875.160156 3.472657 0 6.589844-2.425781 7.332031-5.964843.847657-4.054688-1.75-8.027344-5.804687-8.875-26.828125-5.621094-49.707031-13.84375-68.003906-24.445313-21.964844-12.722656-37.359375-28.964844-45.757813-48.269531-1.652344-3.796875-6.070312-5.539063-9.871094-3.882813-3.796874 1.652344-5.535156 6.070313-3.882812 9.867188 9.703125 22.304687 27.195312 40.898437 51.992188 55.265625zm0 0"/></g></svg>