<?xml version="1.0" encoding="iso-8859-1"?>
<!-- Generator: Adobe Illustrator 19.0.0, SVG Export Plug-In . SVG Version: 6.00 Build 0)  -->
<svg version="1.1" id="Capa_1" xmlns="http://www.w3.org/2000/svg" xmlns:xlink="http://www.w3.org/1999/xlink" x="0px" y="0px"
	 viewBox="0 0 229.951 229.951" style="enable-background:new 0 0 229.951 229.951;" xml:space="preserve">
<g>
	<g>
		<path style="fill:#DB9F15;" d="M91.495,200.003h9.2v-24.084c0-2.54-2.06-4.6-4.601-4.6l0,0c-2.54,0-4.6,2.06-4.6,4.6V200.003z"/>
		<path style="fill:#DB9F15;" d="M77.575,207.445h31.982c2.055,0,3.721-1.665,3.721-3.721l0,0c0-2.055-1.666-3.721-3.721-3.721
			H77.575c-2.055,0-3.721,1.666-3.721,3.721l0,0C73.854,205.779,75.521,207.445,77.575,207.445z"/>
	</g>
	<g>
		<path style="fill:#FFB819;" d="M111.207,200.003h9.2v-24.084c0-2.54-2.06-4.6-4.601-4.6l0,0c-2.54,0-4.6,2.06-4.6,4.6V200.003z"/>
		<path style="fill:#FFB819;" d="M97.287,207.445h31.982c2.055,0,3.721-1.665,3.721-3.721l0,0c0-2.055-1.666-3.721-3.721-3.721
			H97.287c-2.055,0-3.721,1.666-3.721,3.721l0,0C93.566,205.779,95.232,207.445,97.287,207.445z"/>
	</g>
	<path style="fill:#5C6670;" d="M15.644,97.46L15.644,97.46c0,50.767,41.155,91.922,91.922,91.922l0,0
		c41.259,0,74.706-33.447,74.706-74.706V97.46H15.644z"/>
	<path style="fill:#868D94;" d="M54.358,22.506L54.358,22.506c-21.381,0-38.714,17.333-38.714,38.714v36.24
		c0,28.961,23.478,52.438,52.438,52.438H78c8.324,0,15.073-6.748,15.073-15.073V61.22C93.073,39.839,75.74,22.506,54.358,22.506z"/>
	<path style="fill:#F4CD00;" d="M16.39,62.983C7.338,62.983,0,70.321,0,79.373l0,0h25.825v-16.39H16.39z"/>
	<g>
		<circle style="fill:#FFFFFF;" cx="49.168" cy="58.345" r="11.814"/>
		<circle style="fill:#004987;" cx="49.168" cy="58.345" r="5.907"/>
	</g>
	<path style="fill:#5C6670;" d="M195.405,48.831c-13.837,0-25.053,11.216-25.053,25.052V97.46h10.969
		c26.857,0,48.63-21.772,48.63-48.629H195.405z"/>
	<path style="fill:#41484F;" d="M106.556,113.338c-14.07,0-25.478,11.406-25.478,25.477v4.606c0,14.071,11.407,25.477,25.478,25.477
		h6.014c22.312,0,40.4-18.088,40.4-40.4v-15.16H106.556z"/>
</g>
<g>
</g>
<g>
</g>
<g>
</g>
<g>
</g>
<g>
</g>
<g>
</g>
<g>
</g>
<g>
</g>
<g>
</g>
<g>
</g>
<g>
</g>
<g>
</g>
<g>
</g>
<g>
</g>
<g>
</g>
</svg>
