<?xml version="1.0" encoding="iso-8859-1"?>
<!-- Generator: Adobe Illustrator 19.0.0, SVG Export Plug-In . SVG Version: 6.00 Build 0)  -->
<svg version="1.1" id="Layer_1" xmlns="http://www.w3.org/2000/svg" xmlns:xlink="http://www.w3.org/1999/xlink" x="0px" y="0px"
	 viewBox="0 0 512 512" style="enable-background:new 0 0 512 512;" xml:space="preserve">
<path style="fill:#C25648;" d="M368.488,279.919l17.776,91.609c18.414,22.179,35.801,43.123,40.813,49.16
	c11.864,14.291,33.067,16.257,47.357,4.393L368.488,279.919z"/>
<path style="fill:#C3322A;" d="M368.488,279.919l-34.5,28.643c0,0,27.097,32.639,52.276,62.966
	c7.041-14.313,12.5-29.367,16.287-44.937L368.488,279.919z"/>
<path style="fill:#760200;" d="M347.566,271.936l149.553,180.47c2.963,3.576,8.263,4.072,11.838,1.109
	c3.576-2.968,4.07-8.265,1.109-11.838L375.145,278.863L347.566,271.936z"/>
<g>
	<path style="fill:#DDCAAB;" d="M48.088,350.86l-4.216,43.664c34.414,40.987,86.026,67.049,143.732,67.049
		c0.177,0,0.354-0.006,0.531-0.007L48.088,350.86z"/>
	<path style="fill:#DDCAAB;" d="M146.676,50.427c-32.148,0-60.021,18.218-73.913,44.883l-6.206,64.278l84.706-109.034
		C149.744,50.472,148.215,50.427,146.676,50.427z"/>
</g>
<path style="fill:#B6A07A;" d="M210.861,80.617c-14.371-17.344-35.638-28.763-59.599-30.062l36.872,411.011
	c101.73-0.283,184.418-81.53,187.01-182.702L210.861,80.617z"/>
<path style="fill:#C3B192;" d="M341.515,278.863L201.908,80.617c-12.212-17.344-30.285-28.763-50.645-30.062
	c-35.954,2.349-64.528,38.529-64.658,82.886c-7.345,7.914-14.055,16.677-20.048,26.148L48.088,350.86
	c23.659,64.072,75.976,109.034,137.059,110.66C270.421,459.664,339.335,379.037,341.515,278.863z"/>
<path style="fill:#F13936;" d="M72.763,95.311c-5.948,11.419-9.35,24.375-9.399,38.13C24.498,167.812,0,218.024,0,273.969
	c0,45.904,16.497,87.95,43.872,120.554c0,0,6.837-5.666,17.626-14.606L94.319,95.311H72.763z"/>
<path style="fill:#EA1A17;" d="M154.961,156.863c4.852-6.434,7.731-14.439,7.731-23.118c0-21.228-17.209-38.436-38.435-38.436
	H94.319c-4.882,11.419-7.673,24.375-7.714,38.13C54.706,167.812,34.6,218.024,34.6,273.969c0,39.315,9.933,75.8,26.899,105.948
	c40.78-33.794,138.227-114.546,138.227-114.546C199.724,223.029,182.62,184.698,154.961,156.863z"/>
<path style="fill:#760200;" d="M124.257,141.848h-90.89c-4.644,0-8.408-3.764-8.408-8.408c0-4.643,3.763-8.408,8.408-8.408h90.89
	c4.644,0,8.408,3.764,8.408,8.408C132.664,138.084,128.9,141.848,124.257,141.848z"/>
<g>
</g>
<g>
</g>
<g>
</g>
<g>
</g>
<g>
</g>
<g>
</g>
<g>
</g>
<g>
</g>
<g>
</g>
<g>
</g>
<g>
</g>
<g>
</g>
<g>
</g>
<g>
</g>
<g>
</g>
</svg>
