<svg height="512pt" viewBox="-57 0 512 512" width="512pt" xmlns="http://www.w3.org/2000/svg"><path d="m129.96875 157.609375-.175781 140.09375h-26.78125c-56.894531 0-103.011719-46.117187-103.011719-103.011719v-26.78125c0-5.6875 4.613281-10.300781 10.300781-10.300781zm0 0" fill="#704934"/><path d="m129.96875 157.609375-.039062 36.054687h-129.929688v-25.753906c0-5.6875 4.613281-10.300781 10.300781-10.300781zm0 0" fill="#593b27"/><path d="m398.652344 180.785156v150.914063c0 40.574219-13.410156 78.03125-36.050782 108.160156-32.871093 43.789063-85.242187 72.109375-144.21875 72.109375h-88.589843c-5.683594 0-10.300781-4.617188-10.300781-10.300781v-320.882813c0-77.082031 62.496093-139.578125 139.582031-139.578125 38.546875 0 73.4375 15.625 98.695312 40.882813 25.257813 25.261718 40.882813 60.148437 40.882813 98.695312zm0 0" fill="#aa6b3f"/><path d="m398.652344 180.820312v150.910157c0 40.574219-13.410156 78.03125-36.050782 108.160156-32.871093 43.792969-85.242187 72.109375-144.21875 72.109375h-88.589843c-.226563 0-.441407-.011719-.65625-.019531h58.34375c58.972656 0 111.34375-28.320313 144.214843-72.109375 22.644532-30.128906 36.054688-67.585938 36.054688-108.160156v-150.914063c0-38.546875-15.625-73.433594-40.886719-98.695313-21.804687-21.804687-50.804687-36.445312-83.136719-40.027343 5.035157-.558594 10.15625-.835938 15.347657-.835938 38.546875 0 73.4375 15.628907 98.695312 40.886719 25.257813 25.257812 40.882813 60.148438 40.882813 98.695312zm0 0" fill="#99522b"/><path d="m240.53125 214.421875 6.082031 8.847656c6.171875 8.417969 18.746094 8.375 24.921875-.042969l6.082032-8.804687-18.027344-10.300781zm0 0" fill="#e09958"/><path d="m223.242188 206.144531 15.773437-19.546875c10.308594-12.800781 29.808594-12.78125 40.117187.023438l15.769532 19.511718c2.714844 3.367188.316406 8.304688-4.011719 8.304688h-63.632813c-4.328124 0-6.726562-4.925781-4.015624-8.292969zm0 0" fill="#fcd09f"/><path d="m259.152344 107.304688s1.03125-60.433594 57.34375-80.605469c3.882812-1.589844 29.183594-8.15625 49.101562-26.699219h1.792969c6.9375 5.152344 12.320313 36.503906-26.171875 53.652344-35.839844 15.96875-58.375 18.972656-82.066406 53.652344zm0 0" fill="#fcd09f"/><path d="m341.210938 53.648438c-35.835938 15.964843-58.367188 18.972656-82.058594 53.660156 0 0 .289062-16.71875 8.746094-35.5 12.257812-6.210938 25.917968-10.816406 42.410156-18.160156 22.753906-10.136719 30.183594-25.226563 31.015625-36.949219 7.839843-4.007813 16.460937-9.4375 24.269531-16.699219h1.792969c6.941406 5.152344 12.320312 36.507812-26.175781 53.648438zm0 0" fill="#f4b06c"/><path d="m258.996094 107.304688s-1.03125-60.433594-57.34375-80.605469c-3.882813-1.589844-29.1875-8.15625-49.101563-26.699219h-1.792969c-6.941406 5.152344-12.320312 36.503906 26.171876 53.652344 35.839843 15.96875 58.375 18.972656 82.066406 53.652344zm0 0" fill="#fcd09f"/><path d="m258.558594 308.003906v26.785156c0 56.890626-46.121094 103.011719-103.011719 103.011719h-145.246094c-5.6875 0-10.300781-4.613281-10.300781-10.300781v-26.785156c0-56.890625 46.121094-103.011719 103.011719-103.011719h145.246093c5.6875 0 10.300782 4.613281 10.300782 10.300781zm0 0" fill="#935c37"/><path d="m258.558594 308.003906v26.785156c0 56.890626-46.121094 103.011719-103.011719 103.011719h-145.246094c-5.6875 0-10.300781-4.613281-10.300781-10.300781v-25.238281h154.515625c37.550781 0 67.988281-30.441407 67.988281-67.988281l-.265625-36.570313h26.019531c5.6875 0 10.300782 4.613281 10.300782 10.300781zm0 0" fill="#77462d"/><path d="m398.652344 297.703125v33.996094c0 40.574219-13.410156 78.03125-36.050782 108.160156v-111.25c0-17.070313 13.832032-30.90625 30.902344-30.90625zm0 0" fill="#b28550"/><path d="m398.652344 297.703125v33.996094c0 40.574219-13.410156 78.03125-36.050782 108.160156v-65.246094c3.367188-13.753906 5.148438-28.121093 5.148438-42.914062v-20.160157c5.523438-8.34375 15-13.835937 25.753906-13.835937zm0 0" fill="#a57346"/><g fill="#593b27"><path d="m313.667969 133.417969c-4.265625 0-7.722657 3.457031-7.722657 7.722656v12.878906c0 4.265625 3.457032 7.726563 7.722657 7.726563 4.269531 0 7.726562-3.460938 7.726562-7.726563v-12.878906c0-4.265625-3.457031-7.722656-7.726562-7.722656zm0 0"/><path d="m204.476562 133.417969c-4.265624 0-7.726562 3.457031-7.726562 7.722656v12.878906c0 4.265625 3.460938 7.726563 7.726562 7.726563 4.265626 0 7.726563-3.460938 7.726563-7.726563v-12.878906c0-4.265625-3.457031-7.722656-7.726563-7.722656zm0 0"/></g></svg>