<?xml version="1.0" encoding="iso-8859-1"?>
<!-- Generator: Adobe Illustrator 21.0.0, SVG Export Plug-In . SVG Version: 6.00 Build 0)  -->
<svg xmlns="http://www.w3.org/2000/svg" xmlns:xlink="http://www.w3.org/1999/xlink" version="1.1" id="Capa_1" x="0px" y="0px" viewBox="0 0 512 512" style="enable-background:new 0 0 512 512;" xml:space="preserve" width="512" height="512">
<g>
	<path style="fill:#837A91;" d="M268.496,407.841v64.656c0,5.175-4.203,9.37-9.388,9.37h-13.355   c-33.43,0-50.887,19.292-52.63,23.615c-1.257,3.12,1.041,6.518,4.41,6.518h119.932c4.593,0,7.84-4.487,6.395-8.839   c0,0-23.557-25.493-23.557-30.779v-64.54H268.496z"/>
	<path style="fill:#6B6477;" d="M178.641,0c-48.779,0-62.749,35.966-63.781,51.977s28.715,58.248,36.559,128.931   c0,0,18.83,63.945,80.265,136.727c26.807,31.758,36.812,107.368,36.812,107.368h32.063c0,0,19.447-99.246,18.414-154.654   S234.338,0,178.641,0z"/>
	<path style="fill:#5C5568;" d="M318.973,270.349C317.941,214.941,234.338,0,178.641,0c-7.55,0-14.262,0.865-20.225,2.381   c55.094,23.601,128.733,215.987,129.702,267.968c1.033,55.409-18.414,154.655-18.414,154.655h30.855   C300.559,425.004,320.006,325.758,318.973,270.349z"/>
	<path style="fill:#5C5568;" d="M392.591,376.761l90.852,130.378c1.456,2.09-0.124,4.952-2.684,4.859l-31.801-5.025   c-22.519-0.814-103.224-104.343-103.224-104.343L392.591,376.761z"/>
	<path style="fill:#837A91;" d="M269.527,115.693L413.11,407.268c0,0-218.479,16.056-278.353-121.723   C63.513,121.6,269.527,115.693,269.527,115.693z"/>
	<path style="fill:#6B6477;" d="M269.527,115.693c0,0-12.038,0.346-29.287,3.184l142.015,288.39c0,0-2.093,0.153-5.91,0.301   c22.387,0.755,36.765-0.301,36.765-0.301L269.527,115.693z"/>
	<g>
		<path style="fill:#5C5568;" d="M363.784,370.876c-58.075-3.737-160.485-21.476-193.863-98.286    c-1.651-3.798-6.066-5.538-9.861-3.887c-3.795,1.652-5.534,6.071-3.884,9.869c36.554,84.118,145.16,103.315,206.646,107.272    c0.164,0.011,0.326,0.016,0.488,0.016c3.919,0,7.216-3.05,7.471-7.019C371.047,374.708,367.914,371.142,363.784,370.876z"/>
		<path style="fill:#5C5568;" d="M236.308,321.399c19.625,11.381,43.929,20.161,72.238,26.095c0.518,0.108,1.035,0.161,1.544,0.161    c3.471,0,6.587-2.428,7.327-5.964c0.848-4.054-1.748-8.029-5.799-8.878c-26.744-5.606-49.554-13.813-67.796-24.392    c-21.895-12.698-37.242-28.903-45.613-48.164c-1.651-3.799-6.068-5.539-9.861-3.886c-3.795,1.652-5.534,6.07-3.883,9.869    C194.142,288.502,211.584,307.061,236.308,321.399z"/>
	</g>
	<path style="fill:#837A91;" d="M151.448,84.176l-7.205,1.288l-94.124,16.864l-19.695,3.531c-1.78,0.319-3.065-1.644-2.086-3.165   c23.301-36.186,77.085-40.644,89.988-41.191c1.801-0.082,3.572,0.453,5.023,1.514l26.41,19.203l0.906,0.659   C151.036,83.249,151.314,83.692,151.448,84.176z"/>
	<path style="fill:#5C5568;" d="M151.561,84.949c0,0.288-0.041,0.577-0.134,0.845l-0.309,0.67c-0.01,0-0.01,0.01-0.01,0.021   l-10.19,21.778c-0.422,0.917-1.266,1.566-2.254,1.731c-7.637,1.349-42.28,9.56-59.53,8.478   c-18.248-1.143-27.698-14.711-29.016-16.143c-0.082-0.103-0.134-0.155-0.134-0.155l94.258-16.72l7.205-1.277   C151.52,84.423,151.561,84.681,151.561,84.949z"/>
</g>















</svg>
