<?xml version="1.0" encoding="iso-8859-1"?>
<!-- Generator: Adobe Illustrator 19.0.0, SVG Export Plug-In . SVG Version: 6.00 Build 0)  -->
<svg version="1.1" id="Capa_1" xmlns="http://www.w3.org/2000/svg" xmlns:xlink="http://www.w3.org/1999/xlink" x="0px" y="0px"
	 viewBox="0 0 511.999 511.999" style="enable-background:new 0 0 511.999 511.999;" xml:space="preserve">
<g>
	<path style="fill:#FADC60;" d="M341.81,464.43h35.151c8.44,0,15.283-6.842,15.283-15.283c0-8.44-6.842-15.283-15.283-15.283
		h-19.868v-55.019c0-8.44-6.842-15.283-15.283-15.283c-8.44,0-15.283,6.842-15.283,15.283v70.302
		C326.528,457.588,333.37,464.43,341.81,464.43z"/>
	<path style="fill:#FADC60;" d="M248.637,464.43h35.151c8.44,0,15.283-6.842,15.283-15.283c0-8.44-6.842-15.283-15.283-15.283
		h-19.868v-55.019c0-8.44-6.842-15.283-15.283-15.283c-8.44,0-15.283,6.842-15.283,15.283v70.302
		C233.354,457.588,240.196,464.43,248.637,464.43z"/>
</g>
<path style="fill:#B8B8B8;" d="M113.396,339.551c-125.587,34.817-147.847,2.709-61.834-29.205l25.969-10.173l48.312,10.697
	L113.396,339.551z"/>
<path style="fill:#506366;" d="M428.462,192.507c-102.021,0-175.448,78.238-203.84,114.246c-6.974,8.845-3,21.949,7.743,25.335
	c38.298,12.071,98.94,21.841,194.92,21.92c44.71,0.037,81.772-35.751,81.928-80.461
	C509.369,228.816,473.156,192.507,428.462,192.507z"/>
<g>
	<path style="fill:#F2C42C;" d="M341.81,363.563c-8.44,0-15.283,6.842-15.283,15.283v49.285c10.706-0.533,20.883-1.719,30.565-3.573
		v-45.712C357.094,370.406,350.252,363.563,341.81,363.563z"/>
	<path style="fill:#F2C42C;" d="M263.92,424.729v-45.883c0-8.44-6.842-15.283-15.283-15.283s-15.283,6.842-15.283,15.283v40.593
		C243.304,421.513,253.5,423.276,263.92,424.729z"/>
</g>
<path style="fill:#EFEDEE;" d="M353.543,47.57c-62.939,0.217-113.477,52.176-113.477,115.114v128.264
	c0,3.106,0.129,6.182,0.373,9.225c0,0-162.86,0-162.91,0c1.284,0,10.646,15.076,11.924,16.539
	c44.053,50.431,116.122,74.23,180.424,82.849c45.973,6.163,96.122,5.404,135.615-22.116c38.553-26.866,62.332-73.002,62.332-119.929
	v-96.069C467.825,98.42,416.621,47.352,353.543,47.57z"/>
<path style="fill:#B8B8B8;" d="M277.526,300.174c-0.244-3.044-0.373-6.119-0.373-9.225V162.684
	c0-56.778,41.132-104.614,95.391-113.595c-6.181-1.016-12.527-1.542-19.001-1.52c-62.939,0.217-113.477,52.176-113.477,115.114
	v128.264c0,3.106,0.129,6.181,0.373,9.225C261.953,300.174,277.526,300.174,277.526,300.174z"/>
<path style="fill:#506366;" d="M247.659,170.766c-102.021,0-175.448,78.238-203.84,114.246c-6.974,8.845-3,21.949,7.743,25.335
	c38.298,12.071,98.94,21.841,194.92,21.92c44.71,0.037,81.772-35.751,81.928-80.461
	C328.565,207.076,292.352,170.766,247.659,170.766z"/>
<g>
	<path style="fill:#3A484A;" d="M354.825,156.019c-4.267,0-7.726-3.459-7.726-7.726V130.3c0-4.267,3.459-7.726,7.726-7.726
		s7.726,3.459,7.726,7.726v17.992C362.551,152.56,359.092,156.019,354.825,156.019z"/>
	<path style="fill:#3A484A;" d="M433.021,156.019c-4.267,0-7.726-3.459-7.726-7.726V130.3c0-4.267,3.459-7.726,7.726-7.726
		s7.726,3.459,7.726,7.726v17.992C440.747,152.56,437.288,156.019,433.021,156.019z"/>
</g>
<path style="fill:#F2C42C;" d="M438.837,166.97l-47.023,12.172h-0.6v0.156c0,14.348,11.626,25.975,25.975,25.975h47.28
	c14.432,0,26.131-11.699,26.131-26.131L438.837,166.97z"/>
<path style="fill:#FADC60;" d="M511.999,179.141H391.215c0-14.348,11.626-25.975,25.975-25.975h68.835
	C500.363,153.166,511.999,164.792,511.999,179.141z"/>
<g>
</g>
<g>
</g>
<g>
</g>
<g>
</g>
<g>
</g>
<g>
</g>
<g>
</g>
<g>
</g>
<g>
</g>
<g>
</g>
<g>
</g>
<g>
</g>
<g>
</g>
<g>
</g>
<g>
</g>
</svg>
