<?xml version="1.0" encoding="iso-8859-1"?>
<!-- Generator: Adobe Illustrator 19.0.0, SVG Export Plug-In . SVG Version: 6.00 Build 0)  -->
<svg version="1.1" id="Capa_1" xmlns="http://www.w3.org/2000/svg" xmlns:xlink="http://www.w3.org/1999/xlink" x="0px" y="0px"
	 viewBox="0 0 512 512" style="enable-background:new 0 0 512 512;" xml:space="preserve">
<g>
	<path style="fill:#FFCB47;" d="M240.164,460.66c-3.496,0-6.705-2.315-7.687-5.848l-5.322-19.157
		c-1.115-4.016,1.045-8.215,4.963-9.639l21.084-7.668v-24.74c0-4.409,3.574-7.983,7.983-7.983c4.409,0,7.983,3.574,7.983,7.983
		v30.331c0,3.357-2.1,6.354-5.255,7.502l-19.398,7.055l3.345,12.042c1.18,4.248-1.307,8.648-5.554,9.828
		C241.591,460.565,240.871,460.66,240.164,460.66z"/>
	<path style="fill:#FFCB47;" d="M294.707,461.989c-1.613,0-3.24-0.487-4.65-1.5c-3.581-2.571-4.398-7.56-1.826-11.141l6.62-9.218
		l-35.51-8.425c-4.289-1.018-6.942-5.321-5.924-9.61c1.018-4.289,5.318-6.941,9.61-5.924l47.099,11.175
		c2.591,0.614,4.703,2.48,5.635,4.974c0.931,2.494,0.559,5.288-0.995,7.451l-13.57,18.892
		C299.638,460.835,297.19,461.989,294.707,461.989z"/>
</g>
<path style="fill:#F2EDE1;" d="M290.72,272.441v95.357c0,16.306-13.219,29.536-29.536,29.536c-16.306,0-29.536-13.23-29.536-29.536
	v-11.655"/>
<path style="fill:#FF9A47;" d="M431.686,226.984c-1.905,4.885-4.023,9.696-6.354,14.401
	c-26.939,54.517-81.349,96.559-142.912,109.15c-18.52,3.789-37.285,5.662-55.996,5.662c-37.317,0-74.452-7.472-109.161-22.192
	L0.002,284.279l38.072-38.072l43.511-29.27l185.189-27.141l119.741-36.721l37.519,37.519L431.686,226.984z"/>
<g>
	<path style="fill:#E25D1B;" d="M415.719,187.069c-23.938,61.435-82.382,109.874-149.266,123.551
		c-18.52,3.789-37.285,5.662-55.996,5.662c-37.317,0-74.452-7.472-109.161-22.192l-78.018-33.091l14.795-14.795l43.511-29.27
		l185.189-27.141l119.741-36.721l27.929,27.929L415.719,187.069z"/>
	<path style="fill:#E25D1B;" d="M431.686,226.984c-1.905,4.885-4.023,9.696-6.354,14.401l-20.989-20.989l-23.874,23.863
		l-24.299-23.224c-0.255,4.971-10.654,10.165-12.293,15.412c-5.524,17.647-24.374,16.327-58.625,27.822
		c-14.348,4.811-17.487,8.696-39.371,10.644c-96.304,8.589-171.064,4.854-213.128-13.273c-2.448-1.054-4.779-2.097-7.004-3.108
		l12.325-12.325l43.511-29.27l185.188-27.141l119.741-36.721l37.519,37.519L431.686,226.984z"/>
</g>
<path style="fill:#F2EDE1;" d="M460.635,66.104l-17.871,65.714l3.291,100.19c0.114,3.466-4.073,5.28-6.526,2.829l-29.867-29.876
	l-23.874,23.863l-24.299-23.224c-0.255,4.971-10.655,10.165-12.294,15.412c-5.524,17.647-24.372,16.329-58.623,27.825
	c-14.348,4.811-17.49,8.696-39.373,10.644c-96.304,8.589-171.064,4.851-213.128-13.275C13.432,235.593,0,226.653,0,226.653
	c64.011-41.372,151.555-60.019,216.64-68.417c51.909-6.695,89.534-6.876,89.534-6.876l23.437-43.426
	c19.265-35.688,56.55-57.923,97.091-57.923h21.628C456.729,50.011,462.838,57.993,460.635,66.104z"/>
<path style="fill:#DBC293;" d="M448.331,50.011c-18.009,0-77.06,39.2-87.076,137.771c-0.266,2.576-0.49,5.194-0.681,7.855
	c-0.585,8.079-6.173,11.208-6.056,20.053c-5.524,17.647-20.414,35.784-54.666,47.279c-30.249-30.409-60.317-67.203-83.212-99.411
	c51.909-6.695,89.534-12.198,89.534-12.198l23.437-43.426c19.265-35.688,56.55-57.923,97.091-57.923L448.331,50.011L448.331,50.011z
	"/>
<path style="fill:#E25D1B;" d="M350.165,239.414c-14.22,18.296-43.139,34.315-98.975,39.286C98.517,292.313,0,226.642,0,226.642
	c68.417-44.214,163.72-62.467,229.743-70.003c45.023-5.13,76.432-5.279,76.432-5.279h0.969
	c26.588,0.287,46.417,18.552,52.494,40.776C363.863,207.547,361.479,224.854,350.165,239.414z"/>
<path style="fill:#FF9A47;" d="M359.638,192.135c-18.392,57.348-154.258,67.161-177.472,43.958
	c-23.948-23.948-3.8-72.036,47.577-79.444v-0.011c45.023-5.13,76.432-5.279,76.432-5.279h0.969
	C333.731,151.647,353.56,169.912,359.638,192.135z"/>
<path style="fill:#262B3B;" d="M419.763,102.619c-4.409,0-7.983-3.574-7.983-7.983V82.242c0-4.409,3.574-7.983,7.983-7.983
	c4.409,0,7.983,3.574,7.983,7.983v12.395C427.746,99.045,424.172,102.619,419.763,102.619z"/>
<path style="fill:#FFCB47;" d="M505.34,115.908c-1.235,0-2.448-0.351-3.502-1.001l-8.323-5.162h-46.406
	c-4.162,0-6.833-4.406-4.917-8.089l18.435-35.55h16.391c9.154,0,17.541,4.619,22.479,12.049c1.032,1.543,1.905,3.204,2.608,4.981
	l6.131,15.412l3.289,8.249C513.259,111.16,510.034,115.908,505.34,115.908z"/>
<path style="fill:#E58B25;" d="M499.497,78.155c-31.09-12.613-44.48,16.881-44.48,31.59h-7.908c-4.162,0-6.833-4.406-4.917-8.089
	l18.435-35.55h16.391C486.171,66.106,494.558,70.725,499.497,78.155z"/>
<path style="fill:#DBC293;" d="M425.961,90.224h-24.792c-4.409,0-7.983-3.574-7.983-7.983c0-4.409,3.574-7.983,7.983-7.983h24.792
	c4.409,0,7.983,3.574,7.983,7.983C433.944,86.65,430.37,90.224,425.961,90.224z"/>
<g>
</g>
<g>
</g>
<g>
</g>
<g>
</g>
<g>
</g>
<g>
</g>
<g>
</g>
<g>
</g>
<g>
</g>
<g>
</g>
<g>
</g>
<g>
</g>
<g>
</g>
<g>
</g>
<g>
</g>
</svg>
