<svg height="511pt" viewBox="-15 1 511 511.99998" width="511pt" xmlns="http://www.w3.org/2000/svg"><path d="m212.09375 432.632812h30.054688v79.367188h-30.054688zm0 0" fill="#ff9100"/><path d="m227.121094 432.632812h15.027344v79.367188h-15.027344zm0 0" fill="#ed691e"/><path d="m255.210938 368.523438c-.140626-.003907-14.113282-.492188-28.011719-.734376-8.253907-.144531-14.902344-.179687-19.761719-.097656-9.519531.15625-18.507812.300782-22.652344 9.832032-1.097656 2.519531-1.472656 5.203124-1.167968 7.796874l1.230468 62.339844h84.867188v-78.628906zm0 0" fill="#fdbf00"/><path d="m269.714844 369.03125-14.503906-.507812c-.140626-.003907-14.113282-.492188-28.011719-.734376-.023438 0-.050781 0-.078125 0v79.871094h42.59375zm0 0" fill="#ff9100"/><path d="m261.183594 432.632812h30.054687v79.367188h-30.054687zm0 0" fill="#ed691e"/><path d="m30.554688 76.730469h-30.054688c0-26.511719 21.570312-48.085938 48.085938-48.085938h7.011718v30.054688h-7.011718c-9.941407 0-18.03125 8.089843-18.03125 18.03125zm0 0" fill="#ff9100"/><path d="m208.835938 107.734375v-34.636719c0-40.304687-32.792969-73.097656-73.101563-73.097656h-3.347656c-24.207031 0-48.390625 5.828125-69.9375 16.851562l-25.917969 13.257813 45.796875 105.5625c-11.960937 78.457031 9.875 138.953125 30.542969 176.136719 12.109375 21.785156 27.476562 42.058594 44.445312 58.632812 15.542969 15.183594 31.996094 26.957032 47.570313 34.050782 15.996093 7.28125 29.886719 20.121093 35.398437 32.714843l4.570313 10.453125h67.960937v-15.027344c0-9.164062 5.480469-17.628906 13.960938-21.570312 3.609375-1.679688 7.164062-3.574219 10.566406-5.636719 9.597656-5.816406 18.261719-13.09375 25.75-21.628906l7.25-8.261719zm0 0" fill="#fff587"/><path d="m227.121094 138.050781v281.386719c5.867187 5.546875 10.5 11.683594 13.164062 17.769531l4.570313 10.453125h67.960937v-15.027344c0-9.164062 5.480469-17.628906 13.960938-21.570312 3.609375-1.679688 7.164062-3.574219 10.566406-5.636719 9.597656-5.816406 18.261719-13.09375 25.753906-21.628906l7.246094-8.261719zm0 0" fill="#fed24c"/><path d="m209.59375 108.921875c-.445312.96875-35.570312 37.933594-79.277344 44.796875-.605468 36.878906 10.324219 100.707031 52.824219 153.664062 20.101563 25.042969 45.09375 44.703126 74.285156 58.421876 33.394531 15.703124 72.476563 23.664062 116.164063 23.660156h.109375c27.800781 0 53.984375 11.605468 71.839843 31.839844l6.5625 7.4375 7.449219 8.480468 22.582031-19.832031zm0 0" fill="#a0401a"/><path d="m227.121094 128.757812v219.628907c9.519531 6.582031 19.625 12.402343 30.304687 17.421875 33.394531 15.699218 72.476563 23.660156 116.164063 23.660156h.109375c27.800781 0 53.984375 11.601562 71.839843 31.835938l6.5625 7.441406 7.449219 8.480468 22.582031-19.835937zm0 0" fill="#862712"/></svg>