<?xml version="1.0" encoding="iso-8859-1"?>
<!-- Generator: Adobe Illustrator 21.0.0, SVG Export Plug-In . SVG Version: 6.00 Build 0)  -->
<svg xmlns="http://www.w3.org/2000/svg" xmlns:xlink="http://www.w3.org/1999/xlink" version="1.1" id="Capa_1" x="0px" y="0px" viewBox="0 0 512.007 512.007" style="enable-background:new 0 0 512.007 512.007;" xml:space="preserve" width="512" height="512">
<g>
	<path style="fill:#AAAAAA;" d="M293.696,244.099c-0.442-2.909-2.544-5.29-5.376-6.09   c-72.834-20.573-105.72-121.087-106.043-122.097c-0.891-2.797-3.332-4.818-6.247-5.17c-2.912-0.355-5.767,1.028-7.299,3.534   c-33.124,54.177-28.198,116.348-27.978,118.898l0,0.006c0.158,2.046,1.146,3.938,2.737,5.236   c21.394,17.455,45.034,28.419,68.365,31.706c5.187,0.731,10.341,1.096,15.462,1.096c21.782,0,42.932-6.6,63.056-19.706   C292.839,249.906,294.138,247.008,293.696,244.099z"/>
	<path style="fill:#999999;" d="M227.318,271.218c21.782,0,42.932-6.6,63.056-19.706c2.465-1.605,3.764-4.504,3.322-7.413   c-0.442-2.909-2.544-5.29-5.376-6.09c-7.443-2.102-14.462-5.051-21.079-8.632c-35.535,16.299-67.558,7.496-89.219-3.782   c-12.771-6.649-25.137-15.806-36.436-26.823c-2.014,19.615-0.933,33.236-0.832,34.402l0,0.006c0.158,2.046,1.146,3.938,2.737,5.236   c21.394,17.455,45.034,28.419,68.365,31.706C217.042,270.854,222.196,271.218,227.318,271.218z"/>
	<path style="fill:#E0E0E0;" d="M433.352,272.009c-0.829-2.61-3.014-4.56-5.701-5.088l-35.704-7.023   c-5.109-7.963-20.436-28.514-45.999-35.022c-20.113-5.121-41.564-0.388-63.76,14.067c-41.415,26.97-79.505,17.326-104.167,4.487   c-23.146-12.051-44.984-32.306-61.491-57.036c-15.464-23.167-24.725-48.119-25.407-68.457c-0.112-3.342-2.423-6.207-5.666-7.022   c-3.242-0.816-6.634,0.614-8.315,3.506c-0.992,1.707-24.341,42.441-28.715,96.915c-2.588,32.231,2.066,62.525,13.832,90.039   c12.567,29.385,33.267,55.532,61.65,77.916c-23.801,2.734-67.699,5.104-106.891-7.339c-2.215-0.703-4.629-0.34-6.54,0.983   c-1.91,1.323-3.099,3.456-3.219,5.776c-0.157,3.025-3.274,74.722,46.709,130.787c1.424,1.598,3.462,2.509,5.598,2.509   c0.047,0,0.094,0,0.14-0.001c2.187-0.041,4.247-1.034,5.641-2.72c0.644-0.778,64.992-77.745,123.841-74.232   c56.066,3.354,135.082,0.018,173.854-67.306c23.482-40.775,68.141-87.823,68.59-88.293   C433.522,277.472,434.18,274.618,433.352,272.009z"/>
	<g>
		<path style="fill:#C4C4C4;" d="M433.352,272.009c-0.829-2.61-3.014-4.56-5.701-5.088l-32.778-6.448    c-13.894,15.397-43.311,49.409-60.878,79.914c-38.773,67.324-117.789,70.66-173.855,67.306    c-58.85-3.513-123.198,73.454-123.841,74.232c-0.446,0.539-0.966,0.999-1.53,1.388c5.32,8.891,11.651,17.716,19.201,26.185    c1.424,1.598,3.462,2.509,5.598,2.509c0.047,0,0.094,0,0.14-0.001c2.187-0.041,4.247-1.034,5.641-2.72    c0.644-0.778,64.992-77.745,123.841-74.232c56.066,3.354,135.082,0.018,173.854-67.306c23.482-40.775,68.141-87.823,68.59-88.293    C433.522,277.472,434.18,274.618,433.352,272.009z"/>
		<path style="fill:#C4C4C4;" d="M364.744,232.9c-0.849-0.521-1.719-1.027-2.605-1.521c0.272,0.407,0.53,0.8,0.76,1.159    L364.744,232.9z"/>
		<path style="fill:#C4C4C4;" d="M94.72,351.946c0.046-0.005,0.096-0.01,0.142-0.016c-0.179-0.141-0.349-0.286-0.528-0.428    C94.464,351.649,94.589,351.799,94.72,351.946z"/>
	</g>
	<path style="fill:#464649;" d="M329.324,293.514c-7.84,0-14.218-6.378-14.218-14.218c0-7.84,6.378-14.218,14.218-14.218   c7.84,0,14.218,6.378,14.218,14.218C343.542,287.135,337.164,293.514,329.324,293.514z"/>
	<g>
		<path style="fill:#006635;" d="M406.992,354.559c-1.061,0-2.137-0.226-3.162-0.703c-3.755-1.749-5.381-6.211-3.631-9.966    c13.558-29.105,19.998-60.484,19.143-93.264c-0.688-26.385-6.071-53.766-16.001-81.384c-17.032-47.372-41.848-79.373-42.097-79.69    c-2.552-3.261-1.98-7.974,1.278-10.528c3.259-2.554,7.969-1.986,10.525,1.271c1.068,1.361,26.356,33.896,44.244,83.416    c10.54,29.178,16.272,58.191,17.037,86.235c0.961,35.226-5.948,68.964-20.534,100.278    C412.524,352.954,409.818,354.559,406.992,354.559z"/>
		<path style="fill:#45BF7F;" d="M428.061,202.022c-0.557-1.265-13.948-31.086-40.949-40.393    c-27.002-9.308-55.923,5.931-57.141,6.584c-3.451,1.851-4.898,6.046-3.319,9.631c0.557,1.265,13.948,31.086,40.949,40.393    c6.287,2.167,12.674,3.003,18.796,3.003c20.168,0,37.411-9.085,38.345-9.586C428.193,209.802,429.639,205.607,428.061,202.022z"/>
		<path style="fill:#00B76C;" d="M386.397,221.239c20.168,0,37.411-9.085,38.345-9.586c1.726-0.926,2.95-2.437,3.546-4.165    l-101.862-35.11c-0.596,1.728-0.563,3.673,0.226,5.466c0.557,1.265,13.948,31.086,40.949,40.393    C373.888,220.404,380.275,221.239,386.397,221.239z"/>
		<path style="fill:#45BF7F;" d="M455.245,62.75c-1.169-3.739-5.021-5.948-8.834-5.073c-1.347,0.309-33.156,7.849-47.377,32.617v0    c-14.222,24.768-4.699,56.04-4.287,57.359c0.996,3.188,3.941,5.264,7.153,5.264c0.555,0,1.119-0.062,1.681-0.191    c1.347-0.309,33.155-7.849,47.377-32.617C465.18,95.341,455.658,64.069,455.245,62.75z"/>
		<path style="fill:#00B76C;" d="M451.821,58.484l-53.641,93.418c1.118,0.642,2.391,1.014,3.72,1.014    c0.555,0,1.119-0.062,1.681-0.191c1.347-0.309,33.155-7.849,47.377-32.617c14.222-24.768,4.699-56.04,4.287-57.359    C454.661,60.881,453.406,59.394,451.821,58.484z"/>
		<path style="fill:#45BF7F;" d="M366.61,29.731C350.887,5.887,318.674,0.325,317.31,0.1c-3.863-0.633-7.569,1.805-8.504,5.608    c-0.33,1.342-7.905,33.142,7.818,56.985c15.723,23.843,47.936,29.406,49.3,29.631c0.413,0.068,0.823,0.101,1.228,0.101    c3.395,0,6.44-2.312,7.276-5.709C374.758,85.374,382.332,53.574,366.61,29.731z"/>
		<path style="fill:#00B76C;" d="M365.923,92.324c0.413,0.068,0.823,0.101,1.228,0.101c1.495,0,2.908-0.469,4.109-1.261L311.96,1.24    c-1.526,1.006-2.687,2.566-3.155,4.468c-0.33,1.342-7.905,33.142,7.818,56.985C332.346,86.536,364.559,92.099,365.923,92.324z"/>
		<path style="fill:#45BF7F;" d="M498.2,185.168c-1.373-0.158-33.871-3.689-55.557,14.898    c-21.685,18.587-23.167,51.243-23.22,52.624c-0.149,3.914,2.739,7.283,6.63,7.735c0.393,0.045,3.336,0.367,7.85,0.367    c11.247,0,32.231-2.001,47.706-15.265c21.685-18.586,23.167-51.243,23.22-52.624C504.979,188.989,502.091,185.62,498.2,185.168z"/>
		<path style="fill:#00B76C;" d="M504.83,192.903c0.074-1.957-0.61-3.778-1.8-5.166l-81.806,70.118    c1.19,1.388,2.884,2.343,4.83,2.569c0.393,0.045,3.336,0.367,7.85,0.367c11.247,0,32.231-2.001,47.706-15.265    C503.295,226.941,504.777,194.284,504.83,192.903z"/>
	</g>
</g>















</svg>
